<?xml version="1.0" encoding="utf-8"?><!-- Uploaded to: SVG Repo, www.svgrepo.com, Generator: SVG Repo Mixer Tools -->
<svg fill="#000000" width="800px" height="800px" viewBox="0 0 24 24" id="jack-connector-top-right" data-name="Flat Line" xmlns="http://www.w3.org/2000/svg" class="icon flat-line"><path id="secondary" d="M10.39,18.56h0a3,3,0,0,0,4.24,0l2.83-2.83a1,1,0,0,0,0-1.41l-2.82-2.83a1,1,0,0,0-1.42,0l-2.83,2.83A3,3,0,0,0,10.39,18.56Z" style="fill: rgb(44, 169, 188); stroke-width: 2;"></path><path id="primary" d="M6,7.4,9.81,3.59a2,2,0,0,1,2.83,0h0a2,2,0,0,1,0,2.82L4,15a3.49,3.49,0,0,0,0,5H4a3.51,3.51,0,0,0,5,0l1.25-1.26" style="fill: none; stroke: rgb(0, 0, 0); stroke-linecap: round; stroke-linejoin: round; stroke-width: 2;"></path><path id="primary-2" data-name="primary" d="M21,8v2.83l-3.52,3.51-2.82-2.83L18.17,8ZM10.39,18.56h0a3,3,0,0,0,4.24,0l2.83-2.83a1,1,0,0,0,0-1.41l-2.82-2.83a1,1,0,0,0-1.42,0l-2.83,2.83A3,3,0,0,0,10.39,18.56Z" style="fill: none; stroke: rgb(0, 0, 0); stroke-linecap: round; stroke-linejoin: round; stroke-width: 2;"></path></svg>